HIERARCHY
ROOT hips
{
	OFFSET -0.003675 0.299928 -0.021708
	CHANNELS 6 Xposition Yposition Zposition Xrotation Yrotation Zrotation
	JOINT LowerBack
	{
		OFFSET 0.000919 0.177588 0.009275
		CHANNELS 3 Xrotation Yrotation Zrotation
		JOINT spine
		{
			OFFSET 0.000919 0.177588 0.009275
			CHANNELS 3 Xrotation Yrotation Zrotation
			JOINT chest
			{
				OFFSET 0.000456 0.100015 0.004638
				CHANNELS 3 Xrotation Yrotation Zrotation
				JOINT neck
				{
					OFFSET 0.000456 0.100015 0.004638
					CHANNELS 3 Xrotation Yrotation Zrotation
					JOINT head
					{
						OFFSET 0.000924 0.155147 0.009274
						CHANNELS 6 Xposition Yposition Zposition Xrotation Yrotation Zrotation
						End Site
						{
							OFFSET 0.000000 0.153400 0.000000
						}
					}
				}
				JOINT shoulder.L
				{
					OFFSET 0.019937 0.078966 0.057518
					CHANNELS 6 Xposition Yposition Zposition Yrotation Xrotation Zrotation
					JOINT upper_arm.L
					{
						OFFSET 0.177024 -0.020465 -0.095062
						CHANNELS 6 Xposition Yposition Zposition Xrotation Yrotation Zrotation
						JOINT forearm.L
						{
							OFFSET 0.247100 -0.135500 -0.061800
							CHANNELS 3 Xrotation Yrotation Zrotation
							JOINT hand.L
							{
								OFFSET 0.217000 -0.143000 0.039300
								CHANNELS 3 Xrotation Yrotation Zrotation
								JOINT palm.01.L
								{
									OFFSET 0.021770 -0.038291 0.012954
									CHANNELS 6 Xposition Yposition Zposition Yrotation Xrotation Zrotation
									JOINT f_index.01.L
									{
										OFFSET 0.053215 -0.044137 0.008236
										CHANNELS 3 Xrotation Yrotation Zrotation
										JOINT f_index.02.L
										{
											OFFSET 0.036108 -0.024723 -0.010656
											CHANNELS 3 Xrotation Yrotation Zrotation
											JOINT f_index.03.L
											{
												OFFSET 0.021342 -0.014948 -0.010846
												CHANNELS 3 Xrotation Yrotation Zrotation
												End Site
												{
													OFFSET 0.015600 -0.009860 -0.013421
												}
											}
										}
									}
									JOINT thumb.01.L
									{
										OFFSET -0.009090 -0.002348 -0.024223
										CHANNELS 6 Xposition Yposition Zposition Xrotation Yrotation Zrotation
										JOINT thumb.02.L
										{
											OFFSET 0.019713 -0.035076 -0.011120
											CHANNELS 3 Xrotation Yrotation Zrotation
											JOINT thumb.03.L
											{
												OFFSET 0.024877 -0.021748 -0.005176
												CHANNELS 3 Xrotation Yrotation Zrotation
												End Site
												{
													OFFSET 0.016125 -0.013029 -0.001569
												}
											}
										}
									}
								}
								JOINT palm.02.L
								{
									OFFSET 0.032823 -0.025104 0.012281
									CHANNELS 6 Xposition Yposition Zposition Yrotation Xrotation Zrotation
									JOINT f_middle.01.L
									{
										OFFSET 0.055723 -0.038469 0.008037
										CHANNELS 3 Xrotation Yrotation Zrotation
										JOINT f_middle.02.L
										{
											OFFSET 0.038167 -0.027473 -0.015582
											CHANNELS 3 Xrotation Yrotation Zrotation
											JOINT f_middle.03.L
											{
												OFFSET 0.021707 -0.016587 -0.017037
												CHANNELS 3 Xrotation Yrotation Zrotation
												End Site
												{
													OFFSET 0.014112 -0.010584 -0.014294
												}
											}
										}
									}
								}
								JOINT palm.03.L
								{
									OFFSET 0.039230 -0.011402 0.008390
									CHANNELS 6 Xposition Yposition Zposition Yrotation Xrotation Zrotation
									JOINT f_ring.01.L
									{
										OFFSET 0.061796 -0.031470 0.007910
										CHANNELS 3 Xrotation Yrotation Zrotation
										JOINT f_ring.02.L
										{
											OFFSET 0.033092 -0.023401 -0.019127
											CHANNELS 3 Xrotation Yrotation Zrotation
											JOINT f_ring.03.L
											{
												OFFSET 0.021392 -0.015362 -0.017824
												CHANNELS 3 Xrotation Yrotation Zrotation
												End Site
												{
													OFFSET 0.008670 -0.007297 -0.014686
												}
											}
										}
									}
								}
								JOINT palm.04.L
								{
									OFFSET 0.043417 0.002450 0.002889
									CHANNELS 6 Xposition Yposition Zposition Yrotation Xrotation Zrotation
									JOINT f_pinky.01.L
									{
										OFFSET 0.069986 -0.026156 0.003627
										CHANNELS 3 Xrotation Yrotation Zrotation
										JOINT f_pinky.02.L
										{
											OFFSET 0.018520 -0.012813 -0.016429
											CHANNELS 3 Xrotation Yrotation Zrotation
											JOINT f_pinky.03.L
											{
												OFFSET 0.013822 -0.009796 -0.014947
												CHANNELS 3 Xrotation Yrotation Zrotation
												End Site
												{
													OFFSET 0.007238 -0.006103 -0.011657
												}
											}
										}
									}
								}
							}
						}
					}
				}
				JOINT shoulder.R
				{
					OFFSET -0.016662 0.078957 0.057696
					CHANNELS 6 Xposition Yposition Zposition Yrotation Xrotation Zrotation
					JOINT upper_arm.R
					{
						OFFSET -0.176972 -0.020537 -0.095144
						CHANNELS 6 Xposition Yposition Zposition Xrotation Yrotation Zrotation
						JOINT forearm.R
						{
							OFFSET -0.247100 -0.135500 -0.061800
							CHANNELS 3 Xrotation Yrotation Zrotation
							JOINT hand.R
							{
								OFFSET -0.217000 -0.143000 0.039300
								CHANNELS 3 Xrotation Yrotation Zrotation
								JOINT palm.01.R
								{
									OFFSET -0.021773 -0.038278 0.012988
									CHANNELS 6 Xposition Yposition Zposition Yrotation Xrotation Zrotation
									JOINT f_index.01.R
									{
										OFFSET -0.053212 -0.044139 0.008249
										CHANNELS 3 Xrotation Yrotation Zrotation
										JOINT f_index.02.R
										{
											OFFSET -0.036049 -0.024835 -0.010634
											CHANNELS 3 Xrotation Yrotation Zrotation
											JOINT f_index.03.R
											{
												OFFSET -0.021371 -0.014881 -0.010866
												CHANNELS 3 Xrotation Yrotation Zrotation
												End Site
												{
													OFFSET -0.015584 -0.009883 -0.013422
												}
											}
										}
									}
									JOINT thumb.01.R
									{
										OFFSET 0.009113 -0.002381 -0.024211
										CHANNELS 6 Xposition Yposition Zposition Xrotation Yrotation Zrotation
										JOINT thumb.02.R
										{
											OFFSET -0.019694 -0.035097 -0.011088
											CHANNELS 3 Xrotation Yrotation Zrotation
											JOINT thumb.03.R
											{
												OFFSET -0.024867 -0.021762 -0.005168
												CHANNELS 3 Xrotation Yrotation Zrotation
												End Site
												{
													OFFSET -0.016120 -0.013036 -0.001565
												}
											}
										}
									}
								}
								JOINT palm.02.R
								{
									OFFSET -0.032828 -0.025095 0.012286
									CHANNELS 6 Xposition Yposition Zposition Yrotation Xrotation Zrotation
									JOINT f_middle.01.R
									{
										OFFSET -0.055721 -0.038472 0.008040
										CHANNELS 3 Xrotation Yrotation Zrotation
										JOINT f_middle.02.R
										{
											OFFSET -0.038101 -0.027593 -0.015557
											CHANNELS 3 Xrotation Yrotation Zrotation
											JOINT f_middle.03.R
											{
												OFFSET -0.021730 -0.016530 -0.017054
												CHANNELS 3 Xrotation Yrotation Zrotation
												End Site
												{
													OFFSET -0.014096 -0.010608 -0.014293
												}
											}
										}
									}
								}
								JOINT palm.03.R
								{
									OFFSET -0.039192 -0.011488 0.008390
									CHANNELS 6 Xposition Yposition Zposition Yrotation Xrotation Zrotation
									JOINT f_ring.01.R
									{
										OFFSET -0.061839 -0.031387 0.007876
										CHANNELS 3 Xrotation Yrotation Zrotation
										JOINT f_ring.02.R
										{
											OFFSET -0.033068 -0.023437 -0.019125
											CHANNELS 3 Xrotation Yrotation Zrotation
											JOINT f_ring.03.R
											{
												OFFSET -0.021371 -0.015393 -0.017822
												CHANNELS 3 Xrotation Yrotation Zrotation
												End Site
												{
													OFFSET -0.008654 -0.007321 -0.014684
												}
											}
										}
									}
								}
								JOINT palm.04.R
								{
									OFFSET -0.043421 0.002443 0.002845
									CHANNELS 6 Xposition Yposition Zposition Yrotation Xrotation Zrotation
									JOINT f_pinky.01.R
									{
										OFFSET -0.069983 -0.026169 0.003599
										CHANNELS 3 Xrotation Yrotation Zrotation
										JOINT f_pinky.02.R
										{
											OFFSET -0.018501 -0.012842 -0.016428
											CHANNELS 3 Xrotation Yrotation Zrotation
											JOINT f_pinky.03.R
											{
												OFFSET -0.013806 -0.009821 -0.014946
												CHANNELS 3 Xrotation Yrotation Zrotation
												End Site
												{
													OFFSET -0.007226 -0.006121 -0.011655
												}
											}
										}
									}
								}
							}
						}
					}
				}
			}
		}
	}
	JOINT pelvis.L
	{
		OFFSET 0.000000 0.000000 0.000000
		CHANNELS 6 Xposition Yposition Zposition Xrotation Yrotation Zrotation
		JOINT thigh.L
		{
			OFFSET 0.101675 0.001054 -0.000000
			CHANNELS 3 Xrotation Yrotation Zrotation
			JOINT shin.L
			{
				OFFSET 0.000000 -0.534800 0.041000
				CHANNELS 3 Xrotation Yrotation Zrotation
				JOINT foot.L
				{
					OFFSET 0.000000 -0.452000 -0.044800
					CHANNELS 3 Xrotation Yrotation Zrotation
					JOINT toe.L
					{
						OFFSET -0.000000 -0.068500 0.109600
						CHANNELS 3 Xrotation Yrotation Zrotation
						End Site
						{
							OFFSET -0.000000 0.000000 0.067200
						}
					}
				}
				JOINT heel.L
				{
					OFFSET 0.000000 -0.452000 -0.044800
					CHANNELS 3 Xrotation Yrotation Zrotation
					JOINT heel.02.L
					{
						OFFSET -0.038000 -0.085200 0.016200
						CHANNELS 6 Xposition Yposition Zposition Xrotation Yrotation Zrotation
						End Site
						{
							OFFSET 0.080000 -0.000000 0.000000
						}
					}
				}
			}
		}
	}
	JOINT pelvis.R
	{
		OFFSET 0.000000 0.000000 0.000000
		CHANNELS 6 Xposition Yposition Zposition Xrotation Yrotation Zrotation
		JOINT thigh.R
		{
			OFFSET -0.094325 0.001054 0.000000
			CHANNELS 3 Xrotation Yrotation Zrotation
			JOINT shin.R
			{
				OFFSET 0.000000 -0.534800 0.041000
				CHANNELS 3 Xrotation Yrotation Zrotation
				JOINT foot.R
				{
					OFFSET 0.000000 -0.452000 -0.044800
					CHANNELS 3 Xrotation Yrotation Zrotation
					JOINT toe.R
					{
						OFFSET -0.000000 -0.068500 0.109600
						CHANNELS 3 Xrotation Yrotation Zrotation
						End Site
						{
							OFFSET -0.000000 0.000000 0.067200
						}
					}
				}
				JOINT heel.R
				{
					OFFSET 0.000000 -0.452000 -0.044800
					CHANNELS 3 Xrotation Yrotation Zrotation
					JOINT heel.02.R
					{
						OFFSET 0.038000 -0.085200 0.016200
						CHANNELS 6 Xposition Yposition Zposition Xrotation Yrotation Zrotation
						End Site
						{
							OFFSET -0.080000 0.000000 -0.000000
						}
					}
				}
			}
		}
	}
}
MOTION
Frames: 4
Frame Time: 0.041667
-0.011281 0.223096 -0.043940 5.203608 -1.195054 95.426984 -0.000001 0.000001 -0.000000 -0.000000 -0.000000 0.000000 0.000000 -0.000001 -0.000000 0.000000 0.000000 0.000000 0.000924 0.155147 0.009274 1.962580 -0.048462 -33.147977 0.019937 0.078966 0.057518 0.983456 1.324843 30.292306 0.177025 -0.020466 -0.095062 40.572806 14.604319 -71.801407 3.388243 4.165685 -0.485561 0.000002 0.000003 0.000004 0.021770 -0.038291 0.012954 0.000003 -0.000002 0.000001 -0.000002 -0.000001 -0.000002 0.000003 -0.000002 0.000008 0.000001 0.000007 -0.000003 -0.009090 -0.002348 -0.024223 0.000003 -0.000000 -0.000001 -0.000004 -0.000002 -0.000001 -0.000000 -0.000001 -0.000001 0.032823 -0.025104 0.012281 0.000001 0.000000 0.000004 0.000000 0.000002 -0.000005 0.000001 -0.000004 0.000005 -0.000005 0.000001 0.000003 0.039230 -0.011402 0.008390 0.000002 -0.000000 0.000006 0.000004 0.000005 -0.000002 0.000002 0.000003 -0.000001 -0.000001 -0.000003 -0.000000 0.043417 0.002450 0.002889 0.000006 -0.000002 -0.000002 -0.000001 0.000001 -0.000002 0.000005 0.000001 -0.000001 0.000000 -0.000005 0.000004 -0.016662 0.078956 0.057696 -21.267893 6.026824 -31.950259 -0.176972 -0.020537 -0.095144 19.620661 -21.888649 43.095338 -49.283264 -9.530399 76.008490 0.000001 0.000004 -0.000000 -0.021773 -0.038278 0.012988 -0.000000 -0.000003 0.000002 -0.000001 0.000003 -0.000001 -0.000003 0.000001 -0.000001 -0.000000 0.000002 0.000007 0.009114 -0.002381 -0.024211 0.000001 -0.000002 0.000000 0.000001 -0.000004 -0.000002 0.000001 -0.000002 0.000003 -0.032828 -0.025095 0.012286 0.000003 -0.000003 0.000001 -0.000004 0.000000 -0.000001 0.000003 0.000003 0.000002 -0.000002 0.000001 -0.000006 -0.039192 -0.011488 0.008390 -0.000002 -0.000000 0.000003 -0.000003 0.000003 -0.000003 0.000002 0.000001 -0.000000 -0.000005 0.000003 -0.000001 -0.043421 0.002443 0.002845 0.000001 -0.000001 0.000000 -0.000003 0.000003 0.000001 -0.000001 -0.000009 0.000002 -0.000003 0.000002 -0.000003 0.000000 0.000000 -0.000000 -2.046819 0.157952 -2.765567 -80.940009 -0.412139 -1.307664 124.659586 0.432524 -4.365751 0.000002 -0.000000 -0.000000 -0.000001 0.000000 -0.000000 0.000000 -0.000000 0.000000 -0.038000 -0.085200 0.016200 0.000001 0.000000 -0.000000 0.000000 0.000000 0.000000 -1.997439 0.156081 -1.531516 -84.208105 1.486415 14.733980 129.228600 0.164135 -1.653148 0.000002 0.000001 0.000000 0.000004 0.000000 -0.000000 0.000003 -0.000000 -0.000000 0.038000 -0.085200 0.016200 -0.000002 0.000000 0.000001 
-0.012094 0.222911 -0.043908 6.757113 -1.106374 96.319027 -0.000000 0.000000 -0.000000 -0.000000 -0.000000 -0.000000 -0.000000 -0.000000 0.000000 -0.000000 -0.000001 0.000000 0.000924 0.155147 0.009274 7.295923 -0.069688 -36.169943 0.019937 0.078966 0.057518 2.035121 1.400421 29.618381 0.177025 -0.020465 -0.095062 42.014638 16.902906 -69.874297 1.290018 0.670160 -3.479938 0.000000 0.000000 0.000007 0.021770 -0.038291 0.012954 -0.000001 -0.000002 -0.000000 0.000001 -0.000003 0.000003 -0.000006 0.000003 0.000009 0.000001 0.000002 -0.000003 -0.009090 -0.002348 -0.024224 0.000002 0.000000 0.000003 -0.000001 0.000000 0.000001 0.000003 -0.000001 -0.000002 0.032823 -0.025104 0.012281 -0.000000 -0.000002 0.000002 -0.000001 -0.000002 -0.000002 -0.000003 0.000006 0.000004 0.000001 -0.000006 0.000004 0.039230 -0.011402 0.008390 -0.000001 0.000000 0.000003 0.000002 0.000003 0.000001 -0.000001 0.000006 -0.000002 0.000003 -0.000001 0.000001 0.043417 0.002450 0.002889 -0.000002 0.000000 -0.000003 -0.000000 -0.000003 -0.000002 0.000002 0.000001 -0.000001 0.000003 -0.000007 0.000000 -0.016662 0.078957 0.057696 -21.343368 6.311270 -32.664020 -0.176972 -0.020537 -0.095144 16.641616 -19.696083 44.114105 -48.820550 -5.736173 72.103500 -0.000004 0.000001 0.000000 -0.021773 -0.038278 0.012988 0.000003 -0.000000 -0.000002 -0.000002 -0.000003 -0.000005 -0.000000 -0.000003 -0.000004 -0.000000 0.000000 0.000004 0.009114 -0.002381 -0.024211 0.000001 -0.000005 0.000000 -0.000000 -0.000001 -0.000003 0.000001 0.000001 0.000001 -0.032828 -0.025095 0.012286 0.000002 0.000002 -0.000003 0.000003 0.000002 -0.000001 0.000003 -0.000002 0.000001 -0.000003 -0.000003 -0.000004 -0.039192 -0.011488 0.008390 0.000004 0.000002 -0.000000 -0.000001 0.000000 -0.000002 0.000002 0.000000 0.000002 -0.000004 0.000004 -0.000003 -0.043421 0.002443 0.002845 0.000000 0.000002 -0.000003 -0.000001 0.000004 -0.000002 0.000000 -0.000001 -0.000000 0.000001 0.000003 0.000003 -0.000000 0.000000 -0.000000 -2.018526 -0.025390 -0.686690 -79.968374 -0.309623 0.015178 123.379881 0.619262 -6.258241 0.000003 -0.000000 0.000000 -0.000003 -0.000000 0.000000 0.000003 -0.000001 0.000000 -0.038000 -0.085200 0.016200 0.000001 -0.000000 -0.000000 -0.000000 0.000000 -0.000000 -1.976104 -0.025460 0.547515 -83.345971 1.561691 15.763184 130.059233 0.097664 -0.982303 -0.000005 -0.000000 -0.000001 0.000000 0.000000 -0.000001 0.000005 0.000001 -0.000002 0.038000 -0.085200 0.016200 -0.000005 -0.000000 -0.000000 
-0.016061 0.223051 -0.043374 14.837259 0.573718 98.505623 -0.000000 -0.000002 0.000001 0.000000 0.000001 -0.000001 -0.000000 0.000002 0.000000 -0.000000 0.000002 0.000001 0.000924 0.155147 0.009274 36.042348 -0.112370 -43.281283 0.019937 0.078966 0.057518 11.132408 -1.040664 19.692216 0.177025 -0.020465 -0.095062 42.065096 28.608811 -58.394614 0.707101 1.940589 29.121983 0.000001 -0.000001 0.000002 0.021770 -0.038291 0.012954 -0.000003 0.000000 0.000001 0.000002 0.000001 -0.000000 -0.000000 -0.000002 0.000008 0.000002 0.000002 0.000002 -0.009090 -0.002348 -0.024224 0.000003 0.000002 0.000001 -0.000000 0.000002 0.000001 -0.000000 -0.000000 -0.000001 0.032823 -0.025104 0.012281 -0.000003 0.000001 0.000005 0.000001 0.000001 -0.000003 -0.000001 0.000002 -0.000000 0.000001 0.000002 -0.000000 0.039230 -0.011402 0.008390 -0.000002 0.000001 0.000004 0.000001 0.000001 -0.000005 -0.000002 0.000001 0.000001 0.000001 0.000000 0.000003 0.043417 0.002450 0.002889 -0.000002 0.000002 -0.000000 -0.000000 -0.000002 0.000001 -0.000000 -0.000001 0.000002 -0.000000 -0.000002 -0.000003 -0.016662 0.078957 0.057696 -15.553698 4.507273 -34.692163 -0.176972 -0.020537 -0.095144 15.828531 -21.385099 39.261686 -37.693925 -2.263379 75.641155 -0.000002 0.000005 0.000004 -0.021773 -0.038278 0.012988 0.000001 -0.000000 -0.000003 -0.000002 0.000004 0.000002 -0.000003 0.000001 -0.000003 -0.000000 -0.000006 -0.000001 0.009113 -0.002381 -0.024211 -0.000000 0.000000 -0.000001 -0.000002 -0.000002 0.000000 0.000005 0.000001 -0.000003 -0.032828 -0.025095 0.012286 -0.000000 -0.000002 -0.000001 0.000003 0.000001 -0.000005 0.000002 0.000001 -0.000002 -0.000001 0.000005 0.000000 -0.039192 -0.011488 0.008390 -0.000001 -0.000001 -0.000000 -0.000001 0.000001 -0.000003 -0.000001 0.000000 -0.000000 0.000003 0.000001 0.000000 -0.043421 0.002443 0.002845 -0.000001 -0.000001 -0.000001 -0.000001 0.000005 -0.000001 0.000000 -0.000001 -0.000000 0.000001 0.000000 0.000002 0.000000 0.000000 0.000000 -2.185382 -0.613207 5.780105 -70.854689 0.263502 7.432441 130.926462 0.899382 -9.110835 -0.000002 -0.000002 -0.000001 -0.000003 -0.000001 0.000000 -0.000002 -0.000001 -0.000000 -0.038000 -0.085200 0.016200 -0.000001 0.000000 -0.000000 0.000000 0.000000 0.000000 -2.160145 -0.610386 7.014555 -71.857941 1.817244 19.370266 116.842625 1.058706 -10.742883 0.000002 0.000000 -0.000000 -0.000001 -0.000000 0.000001 0.000005 0.000000 0.000001 0.038000 -0.085200 0.016200 -0.000002 0.000001 0.000001 
-0.018446 0.232371 -0.048999 15.310451 40.824512 102.627274 0.000002 0.000003 -0.000000 -0.000001 -0.000001 0.000002 0.000002 -0.000002 0.000003 0.000006 -0.000001 0.000001 0.000924 0.155148 0.009274 -10.368766 -0.061682 -48.257506 0.019937 0.078966 0.057518 -8.566094 -1.570641 29.977625 0.177025 -0.020465 -0.095062 -25.673809 30.818855 -107.641459 -5.707780 -7.421024 -3.867524 -0.000003 0.000001 -0.000001 0.021770 -0.038291 0.012954 -0.000001 0.000001 -0.000001 -0.000001 -0.000002 0.000001 0.000002 -0.000001 0.000007 0.000000 0.000001 -0.000000 -0.009090 -0.002348 -0.024224 -0.000000 -0.000002 0.000004 -0.000000 -0.000000 -0.000002 -0.000000 0.000002 -0.000001 0.032823 -0.025104 0.012281 -0.000002 0.000000 0.000002 -0.000000 0.000000 -0.000005 -0.000003 -0.000003 0.000003 -0.000002 0.000003 -0.000001 0.039230 -0.011402 0.008390 -0.000001 0.000001 0.000004 0.000002 0.000002 -0.000000 -0.000001 0.000003 0.000001 -0.000001 -0.000002 0.000003 0.043417 0.002450 0.002889 -0.000002 -0.000001 -0.000005 -0.000001 -0.000003 -0.000000 -0.000000 0.000001 -0.000003 -0.000003 -0.000003 -0.000001 -0.016662 0.078957 0.057696 1.667765 1.567346 -37.929823 -0.176972 -0.020537 -0.095144 -31.358280 -16.875886 67.608778 1.971605 -1.542002 2.855197 0.000001 0.000001 -0.000000 -0.021773 -0.038278 0.012988 0.000001 0.000001 -0.000003 -0.000002 0.000002 -0.000001 -0.000001 -0.000000 -0.000003 -0.000000 0.000000 0.000003 0.009114 -0.002381 -0.024211 -0.000001 -0.000002 -0.000005 -0.000003 0.000004 0.000000 -0.000000 0.000002 -0.000001 -0.032828 -0.025095 0.012286 0.000004 0.000001 -0.000001 0.000006 -0.000000 -0.000003 -0.000000 0.000000 0.000001 -0.000004 0.000003 -0.000004 -0.039192 -0.011488 0.008390 -0.000001 0.000000 -0.000000 -0.000006 0.000004 -0.000007 0.000002 -0.000001 0.000003 0.000000 0.000000 -0.000005 -0.043421 0.002443 0.002845 0.000001 0.000000 0.000002 -0.000001 0.000001 0.000001 -0.000001 -0.000002 0.000004 -0.000003 0.000003 -0.000006 -0.000000 0.000000 -0.000000 -2.381242 0.753134 -8.902582 -109.853696 0.443964 9.711032 135.934520 2.618053 -27.470854 0.000000 -0.000002 0.000002 0.000002 -0.000001 -0.000000 0.000003 -0.000001 0.000002 -0.038000 -0.085200 0.016200 0.000002 0.000001 -0.000004 -0.000000 0.000000 -0.000000 -2.301509 0.741489 -7.669440 -127.690496 1.039227 9.918097 135.517169 -0.557554 5.637912 -0.000005 -0.000001 0.000000 0.000004 0.000000 0.000000 -0.000003 0.000000 0.000000 0.038000 -0.085200 0.016200 -0.000003 0.000000 0.000001 
